<svg width="134" height="42" xmlns="http://www.w3.org/2000/svg">

 <g>
  <title>background</title>
  <rect fill="none" id="canvas_background" height="402" width="582" y="-1" x="-1"/>
 </g>
 <g>
  <title>Layer 1</title>
  <rect id="svg_1" stroke-width="2" stroke="white" fill="#3F3D56" rx="4" height="40" width="132" y="1" x="1"/>
  <path id="svg_2" fill="white" d="m27.216,18.111995c-0.1813,-0.1387 -0.3573,-0.2613 -0.528,-0.368c-0.16,-0.1173 -0.3307,-0.2133 -0.512,-0.288c-0.1813,-0.0853 -0.3787,-0.1493 -0.592,-0.192c-0.2133,-0.0427 -0.4533,-0.064 -0.72,-0.064c-0.544,0 -0.976,0.1227 -1.296,0.368c-0.3093,0.2347 -0.464,0.5547 -0.464,0.96c0,0.2987 0.1227,0.544 0.368,0.736c0.256,0.192 0.5707,0.368 0.944,0.528c0.384,0.16 0.7947,0.32 1.232,0.48c0.4373,0.16 0.8427,0.352 1.216,0.576c0.384,0.224 0.6987,0.496 0.944,0.816c0.256,0.32 0.384,0.7253 0.384,1.216c0,0.3413 -0.0693,0.6613 -0.208,0.96c-0.128,0.288 -0.32,0.544 -0.576,0.768c-0.2453,0.2133 -0.544,0.3947 -0.896,0.544c-0.3413,0.1387 -0.72,0.2293 -1.136,0.272l0,2.336l-0.96,0l0,-2.32c-0.5973,-0.0533 -1.1627,-0.1973 -1.696,-0.432c-0.5333,-0.2347 -0.9867,-0.5067 -1.36,-0.816l0.624,-0.912c0.4053,0.288 0.848,0.544 1.328,0.768c0.4907,0.2133 1.04,0.32 1.648,0.32c0.64,0 1.12,-0.128 1.44,-0.384c0.3307,-0.2667 0.496,-0.6027 0.496,-1.008c0,-0.3307 -0.128,-0.6027 -0.384,-0.816c-0.2453,-0.224 -0.5547,-0.4213 -0.928,-0.592c-0.3733,-0.1707 -0.784,-0.336 -1.232,-0.496c-0.4373,-0.16 -0.8427,-0.3467 -1.216,-0.56c-0.3733,-0.224 -0.688,-0.4853 -0.944,-0.784c-0.2453,-0.3093 -0.368,-0.6987 -0.368,-1.168c0,-0.672 0.2347,-1.2213 0.704,-1.648c0.48,-0.4267 1.1093,-0.6827 1.888,-0.768l0,-2.112l0.96,0l0,2.096c0.5867,0.0533 1.0773,0.192 1.472,0.416c0.3947,0.224 0.752,0.4907 1.072,0.8l-0.704,0.768zm13.6675,-3.504l1.312,0l0,7.712l0.064,0l4.192,-4.096l1.504,0l-3.104,3.088l3.52,4.688l-1.472,0l-2.864,-3.888l-1.84,1.776l0,2.112l-1.312,0l0,-11.392zm9.3378,3.616l4.928,0l0,7.776l-1.312,0l0,-6.704l-3.616,0l0,-1.072zm4.128,-1.6c-0.3094,0 -0.5654,-0.0907 -0.768,-0.272c-0.192,-0.1813 -0.288,-0.4267 -0.288,-0.736c0,-0.3093 0.096,-0.5547 0.288,-0.736c0.2026,-0.192 0.4586,-0.288 0.768,-0.288c0.2986,0 0.5493,0.096 0.752,0.288c0.2026,0.1813 0.304,0.4267 0.304,0.736c0,0.3093 -0.1014,0.5547 -0.304,0.736c-0.2027,0.1813 -0.4534,0.272 -0.752,0.272zm5.3217,-2.016l3.968,0l0,8.88c0,0.576 0.1333,0.992 0.4,1.248c0.2773,0.2453 0.6507,0.368 1.12,0.368c0.4267,0 0.9173,-0.1227 1.472,-0.368l0.336,0.992c-0.352,0.128 -0.6827,0.2347 -0.992,0.32c-0.3093,0.096 -0.6773,0.144 -1.104,0.144c-0.832,0 -1.4667,-0.2347 -1.904,-0.704c-0.4267,-0.4693 -0.64,-1.168 -0.64,-2.096l0,-7.712l-2.656,0l0,-1.072zm9.5938,0l3.968,0l0,8.88c0,0.576 0.1333,0.992 0.4,1.248c0.2773,0.2453 0.6506,0.368 1.12,0.368c0.4266,0 0.9173,-0.1227 1.472,-0.368l0.336,0.992c-0.352,0.128 -0.6827,0.2347 -0.992,0.32c-0.3094,0.096 -0.6774,0.144 -1.104,0.144c-0.832,0 -1.4667,-0.2347 -1.904,-0.704c-0.4267,-0.4693 -0.64,-1.168 -0.64,-2.096l0,-7.712l-2.656,0l0,-1.072zm9.4017,7.52c0,-0.64 0.112,-1.2107 0.336,-1.712c0.224,-0.512 0.5173,-0.944 0.88,-1.296c0.3733,-0.352 0.7947,-0.6187 1.264,-0.8c0.48,-0.192 0.9707,-0.288 1.472,-0.288c0.5547,0 1.0507,0.0907 1.488,0.272c0.4373,0.1707 0.8053,0.416 1.104,0.736c0.3093,0.32 0.544,0.704 0.704,1.152c0.16,0.448 0.24,0.944 0.24,1.488c0,0.1387 -0.0053,0.2773 -0.016,0.416c0,0.128 -0.0107,0.24 -0.032,0.336l-6.08,0c0.0107,0.416 0.0907,0.7893 0.24,1.12c0.16,0.3307 0.368,0.6133 0.624,0.848c0.2667,0.2347 0.576,0.416 0.928,0.544c0.3627,0.128 0.7573,0.192 1.184,0.192c0.4587,0 0.8747,-0.064 1.248,-0.192c0.384,-0.128 0.7573,-0.304 1.12,-0.528l0.464,0.864c-0.384,0.2453 -0.8213,0.4587 -1.312,0.64c-0.4907,0.1813 -1.0507,0.272 -1.68,0.272c-0.576,0 -1.12,-0.0907 -1.632,-0.272c-0.5013,-0.192 -0.944,-0.4587 -1.328,-0.8c-0.3733,-0.352 -0.672,-0.7787 -0.896,-1.28c-0.2133,-0.5013 -0.32,-1.072 -0.32,-1.712zm6.272,-0.64c0,-0.7787 -0.2027,-1.376 -0.608,-1.792c-0.4053,-0.416 -0.9707,-0.624 -1.696,-0.624c-0.32,0 -0.6293,0.0533 -0.928,0.16c-0.288,0.1067 -0.5493,0.2667 -0.784,0.48c-0.2347,0.2027 -0.432,0.4533 -0.592,0.752c-0.16,0.2987 -0.2667,0.64 -0.32,1.024l4.928,0zm4.5538,-3.264l1.088,0l0.112,1.84l0.048,0c0.4053,-0.6293 0.9013,-1.1253 1.488,-1.488c0.5973,-0.3627 1.2586,-0.544 1.984,-0.544c0.288,0 0.5546,0.0267 0.8,0.08c0.2453,0.0427 0.4906,0.1227 0.736,0.24l-0.304,1.136c-0.2774,-0.096 -0.512,-0.1653 -0.704,-0.208c-0.1814,-0.0427 -0.4267,-0.064 -0.736,-0.064c-0.5867,0 -1.152,0.1707 -1.696,0.512c-0.5334,0.3307 -1.0347,0.9013 -1.504,1.712l0,4.56l-1.312,0l0,-7.776zm15.8977,8.88l0,1.136l-7.68,0l0,-1.136l7.68,0z"/>
 </g>
</svg>
